<svg width="20" height="20" viewBox="0 0 20 20" fill="none" xmlns="http://www.w3.org/2000/svg">
<path d="M13.7454 2.99152C12.1331 2.99152 10.7554 4.14075 9.99845 4.93305C9.24153 4.14075 7.86691 2.99152 6.25538 2.99152C3.47768 2.99152 1.53845 4.92767 1.53845 7.69921C1.53845 10.7531 3.94691 12.7269 6.27691 14.6361C7.37691 15.5384 8.51538 16.4707 9.38845 17.5046C9.53538 17.6777 9.75076 17.7777 9.97691 17.7777H10.0215C10.2485 17.7777 10.4631 17.6769 10.6092 17.5046C11.4838 16.4707 12.6215 15.5377 13.7223 14.6361C16.0515 12.7277 18.4615 10.7538 18.4615 7.69921C18.4615 4.92767 16.5223 2.99152 13.7454 2.99152Z" fill="#A9A9A9"/>
</svg>
